<mxfile host="Electron" modified="2023-10-18T08:15:42.352Z" agent="Mozilla/5.0 (Windows NT 10.0; Win64; x64) AppleWebKit/537.36 (KHTML, like Gecko) draw.io/21.6.1 Chrome/112.0.5615.204 Electron/24.6.1 Safari/537.36" etag="gLO6oP3GENG_j6ncy1WD" version="21.6.1" type="device">
  <diagram name="Page-1" id="7Ops39nH0OSQsevzP1TS">
    <mxGraphModel dx="3675" dy="4481" grid="1" gridSize="10" guides="1" tooltips="1" connect="1" arrows="1" fold="1" page="1" pageScale="1" pageWidth="827" pageHeight="1169" math="0" shadow="0">
      <root>
        <mxCell id="0" />
        <mxCell id="1" parent="0" />
        <mxCell id="fBwPLHAUl-B6Hu1rP66Z-1" value="&lt;font style=&quot;font-size: 23px;&quot;&gt;Start&lt;/font&gt;" style="ellipse;whiteSpace=wrap;html=1;" parent="1" vertex="1">
          <mxGeometry x="-60" y="-40" width="120" height="80" as="geometry" />
        </mxCell>
        <mxCell id="fBwPLHAUl-B6Hu1rP66Z-7" value="" style="edgeStyle=orthogonalEdgeStyle;rounded=0;orthogonalLoop=1;jettySize=auto;html=1;fillColor=#f8cecc;strokeColor=#b85450;" parent="1" source="fBwPLHAUl-B6Hu1rP66Z-2" target="fBwPLHAUl-B6Hu1rP66Z-6" edge="1">
          <mxGeometry relative="1" as="geometry" />
        </mxCell>
        <mxCell id="fBwPLHAUl-B6Hu1rP66Z-2" value="Declare Function&lt;br&gt;MainMenu" style="whiteSpace=wrap;html=1;fillColor=#f8cecc;strokeColor=#b85450;" parent="1" vertex="1">
          <mxGeometry x="-710" y="-460" width="120" height="60" as="geometry" />
        </mxCell>
        <mxCell id="fBwPLHAUl-B6Hu1rP66Z-9" value="" style="edgeStyle=orthogonalEdgeStyle;rounded=0;orthogonalLoop=1;jettySize=auto;html=1;fillColor=#f8cecc;strokeColor=#b85450;" parent="1" source="fBwPLHAUl-B6Hu1rP66Z-6" target="fBwPLHAUl-B6Hu1rP66Z-8" edge="1">
          <mxGeometry relative="1" as="geometry" />
        </mxCell>
        <mxCell id="fBwPLHAUl-B6Hu1rP66Z-6" value="Output MainMenu&lt;br&gt;Header (TEMP)" style="shape=parallelogram;perimeter=parallelogramPerimeter;whiteSpace=wrap;html=1;fixedSize=1;fillColor=#f8cecc;strokeColor=#b85450;" parent="1" vertex="1">
          <mxGeometry x="-710" y="-370" width="120" height="60" as="geometry" />
        </mxCell>
        <mxCell id="fBwPLHAUl-B6Hu1rP66Z-11" value="" style="edgeStyle=orthogonalEdgeStyle;rounded=0;orthogonalLoop=1;jettySize=auto;html=1;fillColor=#f8cecc;strokeColor=#b85450;" parent="1" source="fBwPLHAUl-B6Hu1rP66Z-8" target="fBwPLHAUl-B6Hu1rP66Z-10" edge="1">
          <mxGeometry relative="1" as="geometry" />
        </mxCell>
        <mxCell id="fBwPLHAUl-B6Hu1rP66Z-8" value="OUTPUT MainMenu Option 1 - &quot;Login&quot;" style="shape=parallelogram;perimeter=parallelogramPerimeter;whiteSpace=wrap;html=1;fixedSize=1;fillColor=#f8cecc;strokeColor=#b85450;" parent="1" vertex="1">
          <mxGeometry x="-710" y="-280" width="120" height="60" as="geometry" />
        </mxCell>
        <mxCell id="fBwPLHAUl-B6Hu1rP66Z-13" value="" style="edgeStyle=orthogonalEdgeStyle;rounded=0;orthogonalLoop=1;jettySize=auto;html=1;fillColor=#f8cecc;strokeColor=#b85450;" parent="1" source="fBwPLHAUl-B6Hu1rP66Z-10" target="fBwPLHAUl-B6Hu1rP66Z-12" edge="1">
          <mxGeometry relative="1" as="geometry" />
        </mxCell>
        <mxCell id="fBwPLHAUl-B6Hu1rP66Z-10" value="OUTPUT MainMenu Option 2 - &quot;Create Account&quot;" style="shape=parallelogram;perimeter=parallelogramPerimeter;whiteSpace=wrap;html=1;fixedSize=1;fillColor=#f8cecc;strokeColor=#b85450;" parent="1" vertex="1">
          <mxGeometry x="-710" y="-190" width="120" height="60" as="geometry" />
        </mxCell>
        <mxCell id="fBwPLHAUl-B6Hu1rP66Z-15" value="" style="edgeStyle=orthogonalEdgeStyle;rounded=0;orthogonalLoop=1;jettySize=auto;html=1;fillColor=#f8cecc;strokeColor=#b85450;" parent="1" source="fBwPLHAUl-B6Hu1rP66Z-12" target="fBwPLHAUl-B6Hu1rP66Z-14" edge="1">
          <mxGeometry relative="1" as="geometry" />
        </mxCell>
        <mxCell id="fBwPLHAUl-B6Hu1rP66Z-12" value="OUTPUT MainMenu Option 3 - &quot;Exit&quot;" style="shape=parallelogram;perimeter=parallelogramPerimeter;whiteSpace=wrap;html=1;fixedSize=1;fillColor=#f8cecc;strokeColor=#b85450;" parent="1" vertex="1">
          <mxGeometry x="-710" y="-100" width="120" height="60" as="geometry" />
        </mxCell>
        <mxCell id="fBwPLHAUl-B6Hu1rP66Z-17" value="" style="edgeStyle=orthogonalEdgeStyle;rounded=0;orthogonalLoop=1;jettySize=auto;html=1;fillColor=#f8cecc;strokeColor=#b85450;" parent="1" source="fBwPLHAUl-B6Hu1rP66Z-14" target="fBwPLHAUl-B6Hu1rP66Z-16" edge="1">
          <mxGeometry relative="1" as="geometry" />
        </mxCell>
        <mxCell id="fBwPLHAUl-B6Hu1rP66Z-14" value="INPUT -&amp;nbsp;menuChoice SET to UserInput" style="shape=parallelogram;perimeter=parallelogramPerimeter;whiteSpace=wrap;html=1;fixedSize=1;fillColor=#f8cecc;strokeColor=#b85450;" parent="1" vertex="1">
          <mxGeometry x="-710" y="-10" width="120" height="60" as="geometry" />
        </mxCell>
        <mxCell id="fBwPLHAUl-B6Hu1rP66Z-19" value="" style="edgeStyle=orthogonalEdgeStyle;rounded=0;orthogonalLoop=1;jettySize=auto;html=1;fillColor=#f8cecc;strokeColor=#b85450;exitX=0.5;exitY=1;exitDx=0;exitDy=0;" parent="1" source="fBwPLHAUl-B6Hu1rP66Z-20" target="fBwPLHAUl-B6Hu1rP66Z-18" edge="1">
          <mxGeometry relative="1" as="geometry">
            <mxPoint x="-650" y="250" as="sourcePoint" />
          </mxGeometry>
        </mxCell>
        <mxCell id="fBwPLHAUl-B6Hu1rP66Z-16" value="IS menuChoice a number?" style="rhombus;whiteSpace=wrap;html=1;fillColor=#f8cecc;strokeColor=#b85450;" parent="1" vertex="1">
          <mxGeometry x="-700" y="80" width="100" height="90" as="geometry" />
        </mxCell>
        <mxCell id="fBwPLHAUl-B6Hu1rP66Z-18" value="IS menuChoice in the range of accepted options i.e 1 - 4" style="rhombus;whiteSpace=wrap;html=1;fillColor=#f8cecc;strokeColor=#b85450;" parent="1" vertex="1">
          <mxGeometry x="-700" y="240" width="100" height="90" as="geometry" />
        </mxCell>
        <mxCell id="fBwPLHAUl-B6Hu1rP66Z-20" value="Yes" style="text;html=1;strokeColor=#b85450;fillColor=#f8cecc;align=center;verticalAlign=middle;whiteSpace=wrap;rounded=0;" parent="1" vertex="1">
          <mxGeometry x="-680" y="190" width="60" height="30" as="geometry" />
        </mxCell>
        <mxCell id="fBwPLHAUl-B6Hu1rP66Z-22" value="" style="endArrow=none;html=1;rounded=0;exitX=0.5;exitY=1;exitDx=0;exitDy=0;entryX=0.5;entryY=0;entryDx=0;entryDy=0;fillColor=#f8cecc;strokeColor=#b85450;" parent="1" source="fBwPLHAUl-B6Hu1rP66Z-16" target="fBwPLHAUl-B6Hu1rP66Z-20" edge="1">
          <mxGeometry width="50" height="50" relative="1" as="geometry">
            <mxPoint x="-560" y="200" as="sourcePoint" />
            <mxPoint x="-510" y="150" as="targetPoint" />
          </mxGeometry>
        </mxCell>
        <mxCell id="fBwPLHAUl-B6Hu1rP66Z-24" value="No" style="text;html=1;strokeColor=#b85450;fillColor=#f8cecc;align=center;verticalAlign=middle;whiteSpace=wrap;rounded=0;" parent="1" vertex="1">
          <mxGeometry x="-600" y="60" width="60" height="30" as="geometry" />
        </mxCell>
        <mxCell id="fBwPLHAUl-B6Hu1rP66Z-26" value="" style="endArrow=classic;html=1;rounded=0;exitX=0.5;exitY=0;exitDx=0;exitDy=0;entryX=1;entryY=0.5;entryDx=0;entryDy=0;fillColor=#f8cecc;strokeColor=#b85450;" parent="1" source="fBwPLHAUl-B6Hu1rP66Z-24" target="fBwPLHAUl-B6Hu1rP66Z-14" edge="1">
          <mxGeometry width="50" height="50" relative="1" as="geometry">
            <mxPoint x="-340" y="30" as="sourcePoint" />
            <mxPoint x="-570" y="10" as="targetPoint" />
            <Array as="points">
              <mxPoint x="-570" y="20" />
            </Array>
          </mxGeometry>
        </mxCell>
        <mxCell id="fBwPLHAUl-B6Hu1rP66Z-27" value="" style="endArrow=none;html=1;rounded=0;exitX=1;exitY=0.5;exitDx=0;exitDy=0;entryX=0.5;entryY=1;entryDx=0;entryDy=0;fillColor=#f8cecc;strokeColor=#b85450;" parent="1" source="fBwPLHAUl-B6Hu1rP66Z-16" target="fBwPLHAUl-B6Hu1rP66Z-24" edge="1">
          <mxGeometry width="50" height="50" relative="1" as="geometry">
            <mxPoint x="-340" y="30" as="sourcePoint" />
            <mxPoint x="-290" y="-20" as="targetPoint" />
            <Array as="points">
              <mxPoint x="-570" y="125" />
            </Array>
          </mxGeometry>
        </mxCell>
        <mxCell id="fBwPLHAUl-B6Hu1rP66Z-28" value="" style="endArrow=none;html=1;rounded=0;exitX=1;exitY=0.5;exitDx=0;exitDy=0;entryX=0.5;entryY=1;entryDx=0;entryDy=0;fillColor=#f8cecc;strokeColor=#b85450;" parent="1" source="fBwPLHAUl-B6Hu1rP66Z-18" target="fBwPLHAUl-B6Hu1rP66Z-24" edge="1">
          <mxGeometry width="50" height="50" relative="1" as="geometry">
            <mxPoint x="-400" y="170" as="sourcePoint" />
            <mxPoint x="-570" y="130" as="targetPoint" />
            <Array as="points">
              <mxPoint x="-570" y="285" />
            </Array>
          </mxGeometry>
        </mxCell>
        <mxCell id="fBwPLHAUl-B6Hu1rP66Z-33" value="" style="edgeStyle=orthogonalEdgeStyle;rounded=0;orthogonalLoop=1;jettySize=auto;html=1;fillColor=#f8cecc;strokeColor=#b85450;exitX=0.5;exitY=1;exitDx=0;exitDy=0;" parent="1" source="fBwPLHAUl-B6Hu1rP66Z-34" edge="1">
          <mxGeometry relative="1" as="geometry">
            <mxPoint x="-650" y="410" as="sourcePoint" />
            <mxPoint x="-650" y="400" as="targetPoint" />
          </mxGeometry>
        </mxCell>
        <mxCell id="fBwPLHAUl-B6Hu1rP66Z-34" value="Yes" style="text;html=1;strokeColor=#b85450;fillColor=#f8cecc;align=center;verticalAlign=middle;whiteSpace=wrap;rounded=0;" parent="1" vertex="1">
          <mxGeometry x="-680" y="350" width="60" height="30" as="geometry" />
        </mxCell>
        <mxCell id="fBwPLHAUl-B6Hu1rP66Z-35" value="" style="endArrow=none;html=1;rounded=0;exitX=0.5;exitY=1;exitDx=0;exitDy=0;entryX=0.5;entryY=0;entryDx=0;entryDy=0;fillColor=#f8cecc;strokeColor=#b85450;" parent="1" source="fBwPLHAUl-B6Hu1rP66Z-18" target="fBwPLHAUl-B6Hu1rP66Z-34" edge="1">
          <mxGeometry width="50" height="50" relative="1" as="geometry">
            <mxPoint x="-650" y="330" as="sourcePoint" />
            <mxPoint x="-510" y="310" as="targetPoint" />
          </mxGeometry>
        </mxCell>
        <mxCell id="fBwPLHAUl-B6Hu1rP66Z-37" value="RETURN menuChoice as a number" style="rounded=0;whiteSpace=wrap;html=1;fillColor=#f8cecc;strokeColor=#b85450;" parent="1" vertex="1">
          <mxGeometry x="-710" y="400" width="120" height="60" as="geometry" />
        </mxCell>
        <mxCell id="fBwPLHAUl-B6Hu1rP66Z-42" style="edgeStyle=orthogonalEdgeStyle;rounded=0;orthogonalLoop=1;jettySize=auto;html=1;exitX=0;exitY=0.5;exitDx=0;exitDy=0;exitPerimeter=0;entryX=0;entryY=0.5;entryDx=0;entryDy=0;" parent="1" source="fBwPLHAUl-B6Hu1rP66Z-38" target="fBwPLHAUl-B6Hu1rP66Z-39" edge="1">
          <mxGeometry relative="1" as="geometry" />
        </mxCell>
        <mxCell id="fBwPLHAUl-B6Hu1rP66Z-38" value="" style="strokeWidth=2;html=1;shape=mxgraph.flowchart.annotation_2;align=left;labelPosition=right;pointerEvents=1;rotation=-180;fillColor=#f8cecc;strokeColor=#b85450;" parent="1" vertex="1">
          <mxGeometry x="-560" y="-460" width="110" height="920" as="geometry" />
        </mxCell>
        <mxCell id="fBwPLHAUl-B6Hu1rP66Z-39" value="Main Menu Function" style="text;html=1;strokeColor=#b85450;fillColor=#f8cecc;align=center;verticalAlign=middle;whiteSpace=wrap;rounded=0;" parent="1" vertex="1">
          <mxGeometry x="-450" y="-27.5" width="220" height="55" as="geometry" />
        </mxCell>
        <mxCell id="EbNXREoQSYAakdLqrPmK-15" value="" style="edgeStyle=orthogonalEdgeStyle;rounded=0;orthogonalLoop=1;jettySize=auto;html=1;" parent="1" source="fBwPLHAUl-B6Hu1rP66Z-43" target="EbNXREoQSYAakdLqrPmK-14" edge="1">
          <mxGeometry relative="1" as="geometry" />
        </mxCell>
        <mxCell id="fBwPLHAUl-B6Hu1rP66Z-43" value="DECLARE FUNCTION: GetEmail" style="rounded=0;whiteSpace=wrap;html=1;fillColor=#fff2cc;strokeColor=#d6b656;" parent="1" vertex="1">
          <mxGeometry x="-800" y="1080" width="120" height="60" as="geometry" />
        </mxCell>
        <mxCell id="EbNXREoQSYAakdLqrPmK-3" value="" style="edgeStyle=orthogonalEdgeStyle;rounded=0;orthogonalLoop=1;jettySize=auto;html=1;" parent="1" source="fBwPLHAUl-B6Hu1rP66Z-44" target="EbNXREoQSYAakdLqrPmK-2" edge="1">
          <mxGeometry relative="1" as="geometry" />
        </mxCell>
        <mxCell id="fBwPLHAUl-B6Hu1rP66Z-44" value="DECLARE FUNCTION: GetName" style="rounded=0;whiteSpace=wrap;html=1;fillColor=#fff2cc;strokeColor=#d6b656;" parent="1" vertex="1">
          <mxGeometry x="-800" y="659" width="120" height="60" as="geometry" />
        </mxCell>
        <mxCell id="fBwPLHAUl-B6Hu1rP66Z-96" style="edgeStyle=orthogonalEdgeStyle;rounded=0;orthogonalLoop=1;jettySize=auto;html=1;exitX=0;exitY=0.5;exitDx=0;exitDy=0;exitPerimeter=0;entryX=0;entryY=0.5;entryDx=0;entryDy=0;" parent="1" edge="1">
          <mxGeometry relative="1" as="geometry">
            <mxPoint x="-767" y="630" as="sourcePoint" />
            <mxPoint x="-767" y="630" as="targetPoint" />
          </mxGeometry>
        </mxCell>
        <mxCell id="EbNXREoQSYAakdLqrPmK-5" value="" style="edgeStyle=orthogonalEdgeStyle;rounded=0;orthogonalLoop=1;jettySize=auto;html=1;" parent="1" source="EbNXREoQSYAakdLqrPmK-2" target="EbNXREoQSYAakdLqrPmK-4" edge="1">
          <mxGeometry relative="1" as="geometry" />
        </mxCell>
        <mxCell id="EbNXREoQSYAakdLqrPmK-2" value="User Input for forename" style="shape=parallelogram;perimeter=parallelogramPerimeter;whiteSpace=wrap;html=1;fixedSize=1;fillColor=#fff2cc;strokeColor=#d6b656;rounded=0;" parent="1" vertex="1">
          <mxGeometry x="-800" y="740" width="120" height="60" as="geometry" />
        </mxCell>
        <mxCell id="EbNXREoQSYAakdLqrPmK-7" value="" style="edgeStyle=orthogonalEdgeStyle;rounded=0;orthogonalLoop=1;jettySize=auto;html=1;" parent="1" source="EbNXREoQSYAakdLqrPmK-4" target="EbNXREoQSYAakdLqrPmK-6" edge="1">
          <mxGeometry relative="1" as="geometry" />
        </mxCell>
        <mxCell id="EbNXREoQSYAakdLqrPmK-4" value="User Input for surname" style="shape=parallelogram;perimeter=parallelogramPerimeter;whiteSpace=wrap;html=1;fixedSize=1;fillColor=#fff2cc;strokeColor=#d6b656;rounded=0;" parent="1" vertex="1">
          <mxGeometry x="-800" y="820" width="120" height="60" as="geometry" />
        </mxCell>
        <mxCell id="EbNXREoQSYAakdLqrPmK-9" value="" style="edgeStyle=orthogonalEdgeStyle;rounded=0;orthogonalLoop=1;jettySize=auto;html=1;" parent="1" source="EbNXREoQSYAakdLqrPmK-6" target="EbNXREoQSYAakdLqrPmK-8" edge="1">
          <mxGeometry relative="1" as="geometry" />
        </mxCell>
        <mxCell id="EbNXREoQSYAakdLqrPmK-6" value="LIST name contains forename + surname" style="whiteSpace=wrap;html=1;fillColor=#fff2cc;strokeColor=#d6b656;rounded=0;" parent="1" vertex="1">
          <mxGeometry x="-800" y="900" width="120" height="60" as="geometry" />
        </mxCell>
        <mxCell id="EbNXREoQSYAakdLqrPmK-8" value="RETURN name as LIST to &#39;call point&#39;" style="whiteSpace=wrap;html=1;fillColor=#fff2cc;strokeColor=#d6b656;rounded=0;" parent="1" vertex="1">
          <mxGeometry x="-800" y="980" width="120" height="60" as="geometry" />
        </mxCell>
        <mxCell id="EbNXREoQSYAakdLqrPmK-13" style="edgeStyle=orthogonalEdgeStyle;rounded=0;orthogonalLoop=1;jettySize=auto;html=1;exitX=0;exitY=0.5;exitDx=0;exitDy=0;exitPerimeter=0;entryX=0;entryY=0.5;entryDx=0;entryDy=0;" parent="1" source="EbNXREoQSYAakdLqrPmK-10" target="EbNXREoQSYAakdLqrPmK-11" edge="1">
          <mxGeometry relative="1" as="geometry" />
        </mxCell>
        <mxCell id="EbNXREoQSYAakdLqrPmK-10" value="" style="strokeWidth=2;html=1;shape=mxgraph.flowchart.annotation_2;align=left;labelPosition=right;pointerEvents=1;rotation=-180;fillColor=#fff2cc;strokeColor=#d6b656;" parent="1" vertex="1">
          <mxGeometry x="-650" y="660" width="113" height="380" as="geometry" />
        </mxCell>
        <mxCell id="EbNXREoQSYAakdLqrPmK-11" value="GetName Function to retrieve the User&#39;s Name" style="text;html=1;strokeColor=#d6b656;fillColor=#fff2cc;align=center;verticalAlign=middle;whiteSpace=wrap;rounded=0;" parent="1" vertex="1">
          <mxGeometry x="-540" y="815" width="260" height="70" as="geometry" />
        </mxCell>
        <mxCell id="EbNXREoQSYAakdLqrPmK-17" value="" style="edgeStyle=orthogonalEdgeStyle;rounded=0;orthogonalLoop=1;jettySize=auto;html=1;" parent="1" source="EbNXREoQSYAakdLqrPmK-14" target="EbNXREoQSYAakdLqrPmK-16" edge="1">
          <mxGeometry relative="1" as="geometry" />
        </mxCell>
        <mxCell id="EbNXREoQSYAakdLqrPmK-14" value="User input as email" style="shape=parallelogram;perimeter=parallelogramPerimeter;whiteSpace=wrap;html=1;fixedSize=1;fillColor=#fff2cc;strokeColor=#d6b656;rounded=0;" parent="1" vertex="1">
          <mxGeometry x="-800" y="1161" width="120" height="60" as="geometry" />
        </mxCell>
        <mxCell id="EbNXREoQSYAakdLqrPmK-16" value="RETURN email as STRING to &#39;call point&#39;" style="whiteSpace=wrap;html=1;fillColor=#fff2cc;strokeColor=#d6b656;rounded=0;" parent="1" vertex="1">
          <mxGeometry x="-800" y="1241" width="120" height="60" as="geometry" />
        </mxCell>
        <mxCell id="EbNXREoQSYAakdLqrPmK-21" style="edgeStyle=orthogonalEdgeStyle;rounded=0;orthogonalLoop=1;jettySize=auto;html=1;exitX=0;exitY=0.5;exitDx=0;exitDy=0;exitPerimeter=0;entryX=0;entryY=0.5;entryDx=0;entryDy=0;" parent="1" source="EbNXREoQSYAakdLqrPmK-18" target="EbNXREoQSYAakdLqrPmK-19" edge="1">
          <mxGeometry relative="1" as="geometry" />
        </mxCell>
        <mxCell id="EbNXREoQSYAakdLqrPmK-18" value="" style="strokeWidth=2;html=1;shape=mxgraph.flowchart.annotation_2;align=left;labelPosition=right;pointerEvents=1;rotation=-180;fillColor=#fff2cc;strokeColor=#d6b656;" parent="1" vertex="1">
          <mxGeometry x="-650" y="1081" width="110" height="220" as="geometry" />
        </mxCell>
        <mxCell id="EbNXREoQSYAakdLqrPmK-19" value="GetEmail Function to retrieve the User&#39;s Email" style="text;html=1;strokeColor=#d6b656;fillColor=#fff2cc;align=center;verticalAlign=middle;whiteSpace=wrap;rounded=0;" parent="1" vertex="1">
          <mxGeometry x="-540" y="1156" width="260" height="70" as="geometry" />
        </mxCell>
        <mxCell id="EbNXREoQSYAakdLqrPmK-24" value="" style="edgeStyle=orthogonalEdgeStyle;rounded=0;orthogonalLoop=1;jettySize=auto;html=1;" parent="1" source="EbNXREoQSYAakdLqrPmK-22" target="EbNXREoQSYAakdLqrPmK-23" edge="1">
          <mxGeometry relative="1" as="geometry" />
        </mxCell>
        <mxCell id="EbNXREoQSYAakdLqrPmK-22" value="DECLARE FUNCTION: GetPassword" style="rounded=0;whiteSpace=wrap;html=1;fillColor=#fff2cc;strokeColor=#d6b656;" parent="1" vertex="1">
          <mxGeometry x="-800" y="1339" width="120" height="60" as="geometry" />
        </mxCell>
        <mxCell id="EbNXREoQSYAakdLqrPmK-26" value="" style="edgeStyle=orthogonalEdgeStyle;rounded=0;orthogonalLoop=1;jettySize=auto;html=1;" parent="1" source="EbNXREoQSYAakdLqrPmK-23" target="EbNXREoQSYAakdLqrPmK-25" edge="1">
          <mxGeometry relative="1" as="geometry" />
        </mxCell>
        <mxCell id="EbNXREoQSYAakdLqrPmK-23" value="User Input as password" style="shape=parallelogram;perimeter=parallelogramPerimeter;whiteSpace=wrap;html=1;fixedSize=1;fillColor=#fff2cc;strokeColor=#d6b656;rounded=0;" parent="1" vertex="1">
          <mxGeometry x="-800" y="1420" width="120" height="60" as="geometry" />
        </mxCell>
        <mxCell id="EbNXREoQSYAakdLqrPmK-28" value="" style="edgeStyle=orthogonalEdgeStyle;rounded=0;orthogonalLoop=1;jettySize=auto;html=1;" parent="1" source="EbNXREoQSYAakdLqrPmK-25" target="EbNXREoQSYAakdLqrPmK-27" edge="1">
          <mxGeometry relative="1" as="geometry" />
        </mxCell>
        <mxCell id="EbNXREoQSYAakdLqrPmK-25" value="User Input as passwordConfirm" style="shape=parallelogram;perimeter=parallelogramPerimeter;whiteSpace=wrap;html=1;fixedSize=1;fillColor=#fff2cc;strokeColor=#d6b656;rounded=0;" parent="1" vertex="1">
          <mxGeometry x="-800" y="1500" width="120" height="60" as="geometry" />
        </mxCell>
        <mxCell id="EbNXREoQSYAakdLqrPmK-27" value="passwordConfirm same as password?" style="rhombus;whiteSpace=wrap;html=1;fillColor=#fff2cc;strokeColor=#d6b656;rounded=0;" parent="1" vertex="1">
          <mxGeometry x="-790" y="1580" width="100" height="100" as="geometry" />
        </mxCell>
        <mxCell id="EbNXREoQSYAakdLqrPmK-32" value="" style="endArrow=classic;html=1;rounded=0;exitX=1;exitY=0.5;exitDx=0;exitDy=0;entryX=0;entryY=0.5;entryDx=0;entryDy=0;" parent="1" source="EbNXREoQSYAakdLqrPmK-27" target="EbNXREoQSYAakdLqrPmK-34" edge="1">
          <mxGeometry relative="1" as="geometry">
            <mxPoint x="-880" y="1440" as="sourcePoint" />
            <mxPoint x="-780" y="1440" as="targetPoint" />
          </mxGeometry>
        </mxCell>
        <mxCell id="EbNXREoQSYAakdLqrPmK-33" value="No" style="edgeLabel;resizable=0;html=1;align=center;verticalAlign=middle;" parent="EbNXREoQSYAakdLqrPmK-32" connectable="0" vertex="1">
          <mxGeometry relative="1" as="geometry" />
        </mxCell>
        <mxCell id="EbNXREoQSYAakdLqrPmK-36" style="edgeStyle=orthogonalEdgeStyle;rounded=0;orthogonalLoop=1;jettySize=auto;html=1;exitX=0.5;exitY=0;exitDx=0;exitDy=0;entryX=1;entryY=0.5;entryDx=0;entryDy=0;" parent="1" source="EbNXREoQSYAakdLqrPmK-34" target="EbNXREoQSYAakdLqrPmK-25" edge="1">
          <mxGeometry relative="1" as="geometry">
            <Array as="points">
              <mxPoint x="-560" y="1530" />
            </Array>
          </mxGeometry>
        </mxCell>
        <mxCell id="EbNXREoQSYAakdLqrPmK-34" value="OUTPUT: &quot;Password do not match&quot;" style="shape=parallelogram;perimeter=parallelogramPerimeter;whiteSpace=wrap;html=1;fixedSize=1;fillColor=#fff2cc;strokeColor=#d6b656;rounded=0;" parent="1" vertex="1">
          <mxGeometry x="-620" y="1600" width="120" height="60" as="geometry" />
        </mxCell>
        <mxCell id="EbNXREoQSYAakdLqrPmK-37" value="RETURN password as STRING to &#39;call point&#39;" style="whiteSpace=wrap;html=1;fillColor=#fff2cc;strokeColor=#d6b656;rounded=0;" parent="1" vertex="1">
          <mxGeometry x="-800" y="1720" width="120" height="60" as="geometry" />
        </mxCell>
        <mxCell id="EbNXREoQSYAakdLqrPmK-39" value="" style="endArrow=classic;html=1;rounded=0;exitX=0.5;exitY=1;exitDx=0;exitDy=0;entryX=0.5;entryY=0;entryDx=0;entryDy=0;" parent="1" source="EbNXREoQSYAakdLqrPmK-27" target="EbNXREoQSYAakdLqrPmK-37" edge="1">
          <mxGeometry relative="1" as="geometry">
            <mxPoint x="-720" y="1590" as="sourcePoint" />
            <mxPoint x="-620" y="1590" as="targetPoint" />
          </mxGeometry>
        </mxCell>
        <mxCell id="EbNXREoQSYAakdLqrPmK-40" value="Yes" style="edgeLabel;resizable=0;html=1;align=center;verticalAlign=middle;" parent="EbNXREoQSYAakdLqrPmK-39" connectable="0" vertex="1">
          <mxGeometry relative="1" as="geometry" />
        </mxCell>
        <mxCell id="EbNXREoQSYAakdLqrPmK-43" style="edgeStyle=orthogonalEdgeStyle;rounded=0;orthogonalLoop=1;jettySize=auto;html=1;exitX=0;exitY=0.5;exitDx=0;exitDy=0;exitPerimeter=0;entryX=0;entryY=0.5;entryDx=0;entryDy=0;" parent="1" source="EbNXREoQSYAakdLqrPmK-41" target="EbNXREoQSYAakdLqrPmK-42" edge="1">
          <mxGeometry relative="1" as="geometry" />
        </mxCell>
        <mxCell id="EbNXREoQSYAakdLqrPmK-41" value="" style="strokeWidth=2;html=1;shape=mxgraph.flowchart.annotation_2;align=left;labelPosition=right;pointerEvents=1;rotation=-180;fillColor=#fff2cc;strokeColor=#d6b656;" parent="1" vertex="1">
          <mxGeometry x="-540" y="1339" width="110" height="449" as="geometry" />
        </mxCell>
        <mxCell id="EbNXREoQSYAakdLqrPmK-42" value="GetEmail Function to retrieve the User&#39;s Email" style="text;html=1;strokeColor=#d6b656;fillColor=#fff2cc;align=center;verticalAlign=middle;whiteSpace=wrap;rounded=0;" parent="1" vertex="1">
          <mxGeometry x="-430" y="1528.5" width="260" height="70" as="geometry" />
        </mxCell>
        <mxCell id="EbNXREoQSYAakdLqrPmK-46" style="edgeStyle=orthogonalEdgeStyle;rounded=0;orthogonalLoop=1;jettySize=auto;html=1;exitX=0;exitY=0.5;exitDx=0;exitDy=0;exitPerimeter=0;entryX=0;entryY=0.5;entryDx=0;entryDy=0;" parent="1" source="EbNXREoQSYAakdLqrPmK-44" target="EbNXREoQSYAakdLqrPmK-45" edge="1">
          <mxGeometry relative="1" as="geometry" />
        </mxCell>
        <mxCell id="EbNXREoQSYAakdLqrPmK-44" value="" style="strokeWidth=2;html=1;shape=mxgraph.flowchart.annotation_2;align=left;labelPosition=right;pointerEvents=1;rotation=-180;" parent="1" vertex="1">
          <mxGeometry x="-170" y="658" width="50" height="1130" as="geometry" />
        </mxCell>
        <mxCell id="EbNXREoQSYAakdLqrPmK-45" value="&#39;GET&#39; Functions" style="text;html=1;strokeColor=#23445d;fillColor=#bac8d3;align=center;verticalAlign=middle;whiteSpace=wrap;rounded=0;" parent="1" vertex="1">
          <mxGeometry x="-120" y="1176" width="240" height="94" as="geometry" />
        </mxCell>
      </root>
    </mxGraphModel>
  </diagram>
</mxfile>
